<svg id="Calque_1" data-name="Calque 1" xmlns="http://www.w3.org/2000/svg" viewBox="0 0 695.98 227.02"><path d="M531.94,221.2l.42-.58q21.23-28.83,42.47-57.65c.39-.54.78-1.07.46-1.8a1.22,1.22,0,0,0-1.15-.82l-7.3-.22-12.57-.45c-2.88-.11-5.76-.31-8.63-.37a58.69,58.69,0,0,1-16.7-3.11c-8.72-2.82-17.28-6.1-25.76-9.56-5.82-2.37-11.6-4.82-17.4-7.24a1.92,1.92,0,0,0-1.45,0c-5.33,1.78-10.64,3.58-16,5.28-2,.64-4.14,1-6.21,1.54h-.34l-7.35-.19c.77-.89,1.41-1.64,2.07-2.39l8.93-10.16a1.34,1.34,0,0,0-.16-1.89.83.83,0,0,0-.15-.11l-3.62-2.88c-.83-.66-1.67-1.31-2.5-2a1,1,0,0,1-.21-1.4,1,1,0,0,1,.47-.35l9.33-3.9c1.4-.58,1.64-1.11,1.12-2.5L451,68.76l-.2-.58H466a1.14,1.14,0,0,1,.94.42l29.38,32.68L512,118.74a2,2,0,0,0,1.66.74l28.89.12,26.62.12,27.14.11c9.75,0,19.49,0,29.24.17A24.54,24.54,0,0,0,636,117.56c3.53-1.55,7-3.11,10.64-4.51a32.82,32.82,0,0,1,11-2.09c3.63-.12,7.26-.37,10.89-.52,6.06-.26,12.13-.47,18.2-.17,3,.15,6,.39,9,.75a29.51,29.51,0,0,1,11.52,3.72c1.49.86,3.09,1.54,4.64,2.4h-5.69c-1.28,0-1.75.48-1.75,1.75v7.66c0,1.31.48,1.79,1.77,1.79H735a2.18,2.18,0,0,1,1.09.27c2.41,1.43,4.8,2.87,7.17,4.35a5.83,5.83,0,0,1,1.29,1.24c.53.58.6.89.09,1.48a44.91,44.91,0,0,1-3.38,3.52A187,187,0,0,1,726.37,151c-3.33,2.45-6.72,4.81-10,7.26a5.08,5.08,0,0,1-2.83.85c-4.26.27-8.52.58-12.78.71-7.11.22-14.23.39-21.34.46-10.61.1-21.23.1-31.84.14h-12a2.14,2.14,0,0,0-1.26.42q-9.71,7.68-19.38,15.4l-31.76,25.28-26.43,21a1.48,1.48,0,0,1-1.1.37c-3-.23-6-.46-9.07-.67l-7.28-.49Zm76.22-90.93a5.12,5.12,0,0,0-5.24,4.93,5.17,5.17,0,0,0,10.33.62,5.12,5.12,0,0,0-4.67-5.52h-.42Zm-56.79,0a5.18,5.18,0,1,0,.46,0A3.53,3.53,0,0,0,551.37,130.27Zm108.28,5.15a5.17,5.17,0,1,0,5.19-5.15,5.12,5.12,0,0,0-5.19,5v.11Zm-57.77,0a5.17,5.17,0,1,0-5.18,5.16h0a5.13,5.13,0,0,0,5.13-5.11Zm51.65-5.18a5.09,5.09,0,0,0-5.17,5v.1a5.18,5.18,0,0,0,5.11,5.23h0a5.22,5.22,0,0,0,5.2-5.15,5.14,5.14,0,0,0-5.14-5.14h0Zm22.62,0a5.1,5.1,0,0,0-5.14,5.07v.19a5.17,5.17,0,1,0,5.14-5.26Zm-95.88,5.19a5.18,5.18,0,0,0,5.14,5.2h0a5.18,5.18,0,0,0,.46-10.35h-.46a5.09,5.09,0,0,0-5.16,5v.11ZM574,130.24a5.1,5.1,0,0,0-5.13,5.08v.19a5.17,5.17,0,1,0,5.13-5.27Zm-11.35,0a5.1,5.1,0,0,0-5.14,5.07v.2a5.17,5.17,0,1,0,5.14-5.27Zm56.73,0a5.1,5.1,0,0,0-5.14,5.07v.2a5.17,5.17,0,1,0,5.15-5.23Zm11.37,0a5.1,5.1,0,0,0-5.15,5v.09a5.17,5.17,0,1,0,5.2-5.14ZM637,135.4a5.16,5.16,0,0,0,5.13,5.19h0a5.17,5.17,0,1,0,0-10.34h0a5.08,5.08,0,0,0-5.13,5v.12Z" transform="translate(-49.48 -12.53)" style="stroke:#fff;stroke-miterlimit:10"/><path d="M572.94,90.25h19a1.65,1.65,0,0,1,1,.38q12.42,10.56,24.79,21.16l5.64,4.82.48.45h-.44q-16.47,0-32.94-.12a1,1,0,0,1-.63-.35q-8.34-13-16.65-26C573.09,90.57,573,90.45,572.94,90.25Z" transform="translate(-49.48 -12.53)" style="stroke:#fff;stroke-miterlimit:10"/><path d="M581.88,206c.76-.61,1.44-1.17,2.13-1.71q5.87-4.68,11.74-9.33a1.21,1.21,0,0,1,.72-.27h8.58a1,1,0,0,1,.24,0,9.5,9.5,0,0,0,0,11.29Z" transform="translate(-49.48 -12.53)" style="stroke:#fff;stroke-miterlimit:10"/><path d="M629.07,186.46H606.43l.87-.71q6.44-5.19,12.88-10.34a1.24,1.24,0,0,1,.71-.29H629A9.48,9.48,0,0,0,629.07,186.46Z" transform="translate(-49.48 -12.53)" style="stroke:#fff;stroke-miterlimit:10"/><path d="M639.11,181a6.26,6.26,0,0,1-1.79,4.28,3.84,3.84,0,0,1-5.44.13,2.91,2.91,0,0,1-.3-.31,6.63,6.63,0,0,1-.05-8.55A3.88,3.88,0,0,1,637,176a3.71,3.71,0,0,1,.67.7A6.69,6.69,0,0,1,639.11,181Z" transform="translate(-49.48 -12.53)" style="stroke:#fff;stroke-miterlimit:10"/><path d="M606.27,200.37a5.92,5.92,0,0,1,2.06-4.76,3.75,3.75,0,0,1,5,.06,6.55,6.55,0,0,1,.16,9.26l-.06.06a3.9,3.9,0,0,1-5.5-.16,5.58,5.58,0,0,1-.38-.47A6.33,6.33,0,0,1,606.27,200.37Z" transform="translate(-49.48 -12.53)" style="stroke:#fff;stroke-miterlimit:10"/><path d="M470.41,130.57c-18.3-7.61-36.88-14.5-56.06-19.21a161,161,0,0,0-29.18-4.92,104.57,104.57,0,0,0-14.81.11,84.65,84.65,0,0,0-14.59,2.34,75.13,75.13,0,0,0-26.48,12.34,70,70,0,0,0-5.65,4.67L321,128.44l-2.69,2.62a76.31,76.31,0,0,1-11.85,9.27,41.47,41.47,0,0,1-14,5.73,29.76,29.76,0,0,1-15.1-1,43.24,43.24,0,0,1-13.08-7.36,97.19,97.19,0,0,1-10.88-10.19l.14-.14a116.39,116.39,0,0,0,11.34,9.52,43.81,43.81,0,0,0,12.95,6.68,28,28,0,0,0,14.25.6,40.94,40.94,0,0,0,13.27-5.65,80.39,80.39,0,0,0,11.55-9l2.67-2.54,2.75-2.57a73.73,73.73,0,0,1,5.86-4.72,72,72,0,0,1,27.35-11.89,115.63,115.63,0,0,1,29.69-2,176.13,176.13,0,0,1,29.52,3.95,212.54,212.54,0,0,1,28.51,8.68,284.78,284.78,0,0,1,27.25,12Z" transform="translate(-49.48 -12.53)"/><text transform="translate(100.79 152.34) rotate(-19.83)" style="font-size:36px;font-family:MyriadPro-Regular, Myriad Pro">Justine</text><text transform="translate(53.16 64.79) rotate(2.04)" style="font-size:36px;font-family:MyriadPro-Regular, Myriad Pro"><tspan style="letter-spacing:0.005995008680555556em">M</tspan><tspan x="29.16" y="0">élissa</tspan></text><text transform="translate(182.13 218.56) rotate(-19.83)" style="font-size:36px;font-family:MyriadPro-Regular, Myriad Pro;letter-spacing:-0.002983940972222222em">A<tspan x="21.92" y="0" style="letter-spacing:-0.003987630208333333em">n</tspan><tspan x="41.76" y="0" style="letter-spacing:-0.000013563368055555555em">tho</tspan><tspan x="93.42" y="0" style="letter-spacing:-0.012980143229166666em">n</tspan><tspan x="112.93" y="0" style="letter-spacing:0.000013563368055555555em">y</tspan></text><path d="M465.22,128.22c-11.88,0-23.72.3-35.51,1.25-2.95.2-5.89.46-8.83.81s-5.87.8-8.77,1.42a58.2,58.2,0,0,0-16.55,6.11,32.87,32.87,0,0,0-6.94,5.24,20.21,20.21,0,0,0-4.66,7.07,17.47,17.47,0,0,0-1,4.09l-.11,1c0,.36,0,.71,0,1.06l0,2.23a43.23,43.23,0,0,1-1,9,28.33,28.33,0,0,1-3.33,8.57,18.65,18.65,0,0,1-6.58,6.48,20,20,0,0,1-8.77,2.53,25.28,25.28,0,0,1-8.92-1.07l.06-.2a27.73,27.73,0,0,0,8.76.26,19.34,19.34,0,0,0,8.05-2.86,16,16,0,0,0,3.23-2.73,19.11,19.11,0,0,0,1.36-1.62c.39-.59.8-1.17,1.15-1.79a27.67,27.67,0,0,0,2.91-8c.32-1.4.51-2.84.7-4.28s.26-2.89.29-4.36l.08-2.22c0-.39,0-.78.07-1.17l.14-1.16a19.68,19.68,0,0,1,1.22-4.51,20.78,20.78,0,0,1,5.3-7.52,26,26,0,0,1,3.6-2.81,36.62,36.62,0,0,1,3.93-2.26,60.26,60.26,0,0,1,8.32-3.35c2.84-.93,5.71-1.72,8.61-2.42a156.27,156.27,0,0,1,17.58-3.26,148.05,148.05,0,0,1,17.86-.89A151.55,151.55,0,0,1,465.23,128Z" transform="translate(-49.48 -12.53)"/><path d="M462.25,125.91a153.91,153.91,0,0,1-16.58-5.48,154.73,154.73,0,0,1-15.93-7.17,171.88,171.88,0,0,1-14.94-9.09,95.21,95.21,0,0,1-13.75-10.81,35.09,35.09,0,0,1-5.54-6.91,20.34,20.34,0,0,1-2.94-8.52A18.64,18.64,0,0,1,394,69a41.44,41.44,0,0,0,2.24-8.17,24.36,24.36,0,0,0,.06-8.3A17.44,17.44,0,0,0,395,48.58a18.74,18.74,0,0,0-.94-1.84,19.88,19.88,0,0,0-1.2-1.69,20.82,20.82,0,0,0-6.47-5.33,30,30,0,0,0-8.06-3l0-.2a27.14,27.14,0,0,1,8.48,2.27A21.48,21.48,0,0,1,394.11,44a18.07,18.07,0,0,1,4.07,8.08,25.57,25.57,0,0,1,.15,9,39.37,39.37,0,0,1-2.4,8.59l-.74,2a15.56,15.56,0,0,0-.51,2,14.33,14.33,0,0,0-.24,4.08,19.94,19.94,0,0,0,2.45,7.9,37.92,37.92,0,0,0,5,6.94,63.91,63.91,0,0,0,13.31,11,138.57,138.57,0,0,0,15.32,8.14c10.42,5,21,9.6,31.83,14Z" transform="translate(-49.48 -12.53)"/><text transform="translate(225.63 30.13)" style="font-size:36px;font-family:MyriadPro-Regular, Myriad Pro"><tspan style="letter-spacing:-0.025987413194444444em">P</tspan><tspan x="18.22" y="0" style="letter-spacing:-0.004001193576388889em">a</tspan><tspan x="35.42" y="0" style="letter-spacing:-0.000013563368055555555em">t</tspan><tspan x="47.34" y="0" style="letter-spacing:0.004001193576388889em">r</tspan><tspan x="59.26" y="0">ick</tspan></text><path d="M346.16,111.21c-2.35-1.85-4.78-3.61-7.24-5.3s-5-3.32-7.52-4.87-5.14-3-7.77-4.42-5.32-2.67-8-3.9a84.74,84.74,0,0,0-16.87-5.81,51.65,51.65,0,0,0-17.79-.68l.1,0a35.93,35.93,0,0,1-20,.61,32,32,0,0,1-9.29-4.21,33.63,33.63,0,0,1-7.49-6.94,38.47,38.47,0,0,1-2.9-4.18c-.9-1.44-1.68-2.81-2.62-4.15a27.81,27.81,0,0,0-6.47-7.06,14.49,14.49,0,0,0-4.19-2.11,10.38,10.38,0,0,0-4.64-.25,15.14,15.14,0,0,0-8.24,4.81l-.16-.12a16,16,0,0,1,3.57-3.54,12.79,12.79,0,0,1,4.61-2.17,11.56,11.56,0,0,1,5.2,0,14.43,14.43,0,0,1,4.76,2.1,29.56,29.56,0,0,1,7.18,7.24c1,1.34,1.88,2.84,2.77,4.19a40.64,40.64,0,0,0,2.8,3.94,35.11,35.11,0,0,0,7,6.6,30,30,0,0,0,8.64,4.13,36.57,36.57,0,0,0,19.22.29l.07,0h0a68.52,68.52,0,0,1,9.06-.18,87.2,87.2,0,0,1,9,1,82,82,0,0,1,17.41,5,100.65,100.65,0,0,1,30,19.92Z" transform="translate(-49.48 -12.53)"/><text transform="translate(0 187.82)" style="font-size:36px;font-family:MyriadPro-Regular, Myriad Pro">Ugo</text><path d="M295.88,144.29c-3.79,1.19-7.56,2.46-11.31,3.77-1.88.64-3.74,1.33-5.61,2l-5.56,2.12-5.52,2.21-5.48,2.3L257,159.11l-5.37,2.53c-1.82.81-3.55,1.76-5.33,2.64-.88.45-1.77.88-2.64,1.36l-2.58,1.46-2.59,1.47c-.87.48-1.68,1.05-2.52,1.57l-2.49,1.63-1.25.81-1.18.9-2.36,1.81a27.74,27.74,0,0,0-2.31,1.87l-4.36,4a55.14,55.14,0,0,1-9.38,7.5,79,79,0,0,1-22,9.5,116.73,116.73,0,0,1-23.7,3.92c-4,.21-8,.3-12,.14a119.93,119.93,0,0,1-12-1.12,79.82,79.82,0,0,1-11.73-2.62,43.35,43.35,0,0,1-10.91-5l.11-.17a47.45,47.45,0,0,0,11.08,4.14,86.58,86.58,0,0,0,11.65,2.05,129.77,129.77,0,0,0,23.65.4c3.94-.24,7.86-.71,11.76-1.28a108.73,108.73,0,0,0,11.6-2.33A86.39,86.39,0,0,0,212,187.76a47,47,0,0,0,9.47-7.06l4.45-4c1.51-1.31,3.12-2.49,4.68-3.74a147.67,147.67,0,0,1,20.22-12.81,173.43,173.43,0,0,1,22-9.42,193.26,193.26,0,0,1,23-6.63Z" transform="translate(-49.48 -12.53)"/></svg>