<svg id="visual" viewBox="0 0 900 600" width="900" height="600" xmlns="http://www.w3.org/2000/svg" xmlns:xlink="http://www.w3.org/1999/xlink" version="1.1"><path d="M0 38L21.5 34.3C43 30.7 86 23.3 128.8 23.8C171.7 24.3 214.3 32.7 257.2 36.3C300 40 343 39 385.8 36.2C428.7 33.3 471.3 28.7 514.2 26.5C557 24.3 600 24.7 642.8 26C685.7 27.3 728.3 29.7 771.2 31.8C814 34 857 36 878.5 37L900 38L900 0L878.5 0C857 0 814 0 771.2 0C728.3 0 685.7 0 642.8 0C600 0 557 0 514.2 0C471.3 0 428.7 0 385.8 0C343 0 300 0 257.2 0C214.3 0 171.7 0 128.8 0C86 0 43 0 21.5 0L0 0Z" fill="#0066FF" stroke-linecap="round" stroke-linejoin="miter"></path></svg>